<svg width="33" height="30" viewBox="0 0 33 30" fill="none" xmlns="http://www.w3.org/2000/svg">
<path d="M31.3709 3.21631H21.7185C21.2744 3.21631 20.9141 3.57669 20.9141 4.02071C20.9141 4.46472 21.2744 4.82511 21.7185 4.82511H31.3709C31.815 4.82511 32.1753 4.46472 32.1753 4.02071C32.1753 3.57669 31.815 3.21631 31.3709 3.21631Z" fill="#212121"/>
<path d="M31.9405 3.4528L28.7229 0.235279C28.4092 -0.0784264 27.8992 -0.0784264 27.5855 0.235279C27.2718 0.548985 27.2718 1.05898 27.5855 1.37269L30.2335 4.02071L27.5839 6.67032C27.2702 6.98402 27.2702 7.49402 27.5839 7.80773C27.7416 7.96375 27.9475 8.04263 28.1534 8.04263C28.3594 8.04263 28.5653 7.96383 28.7229 7.80773L31.9405 4.59021C32.2542 4.27643 32.2542 3.7665 31.9405 3.4528Z" fill="#212121"/>
<path d="M10.4573 3.21631H0.80478C0.360766 3.21631 0.00038147 3.57669 0.00038147 4.02071C0.00038147 4.46472 0.360766 4.82511 0.80478 4.82511H10.4573C10.9013 4.82511 11.2617 4.46472 11.2617 4.02071C11.2617 3.57669 10.9013 3.21631 10.4573 3.21631Z" fill="#212121"/>
<path d="M1.94211 4.02071L4.59013 1.37269C4.90384 1.05898 4.90384 0.548985 4.59013 0.235279C4.27643 -0.0784264 3.76643 -0.0784264 3.45272 0.235279L0.235279 3.45287C-0.0784264 3.76658 -0.0784264 4.27658 0.235279 4.59028L3.4528 7.8078C3.61048 7.96382 3.81635 8.0427 4.02229 8.0427C4.22824 8.0427 4.43411 7.9639 4.59021 7.80622C4.90391 7.49251 4.90391 6.98251 4.59021 6.66881L1.94211 4.02071Z" fill="#212121"/>
<path d="M1.94211 4.02071L4.59013 1.37269C4.90384 1.05898 4.90384 0.548985 4.59013 0.235279C4.27643 -0.0784264 3.76643 -0.0784264 3.45272 0.235279L0.235279 3.45287C-0.0784264 3.76658 -0.0784264 4.27658 0.235279 4.59028L3.4528 7.8078C3.61048 7.96382 3.81635 8.0427 4.02229 8.0427C4.22824 8.0427 4.43411 7.9639 4.59021 7.80622C4.90391 7.49251 4.90391 6.98251 4.59021 6.66881L1.94211 4.02071Z" fill="#212121"/>
<path d="M27.4188 10.0562C26.9277 10.1545 26.4999 10.3955 26.1709 10.7261C25.6574 9.86204 24.6356 9.37063 23.5949 9.57899C23.1038 9.67731 22.676 9.91831 22.347 10.2489C21.8335 9.38484 20.8117 8.89343 19.771 9.10178C19.3361 9.18886 18.9509 9.38779 18.6405 9.66244L17.8585 5.75634C17.5946 4.43837 16.3082 3.58113 14.9902 3.845C13.6723 4.10886 12.815 5.39526 13.0789 6.71324L15.1123 16.8697L12.7239 15.7286C11.3082 15.0513 9.58116 15.5251 8.70842 16.8333C8.14936 17.6722 8.37686 18.8086 9.21581 19.3676L19.4283 26.1741C20.6473 26.9864 22.1107 27.2751 23.547 26.9875L26.3466 26.427C29.9695 25.7017 32.3283 22.1635 31.6027 18.5394L30.287 11.9675C30.0231 10.6496 28.7367 9.79233 27.4188 10.0562ZM30.4078 18.7786C31.0013 21.7431 29.0719 24.6386 26.1073 25.2321L23.3077 25.7926C22.1893 26.0165 21.0519 25.7919 20.104 25.1601L9.89148 18.3537C9.61183 18.1673 9.53599 17.7885 9.72235 17.5089C10.0188 17.0655 10.4755 16.7765 10.9726 16.677C11.3765 16.5961 11.8078 16.6402 12.1995 16.8277L15.6862 18.4947C15.8951 18.5945 16.143 18.5661 16.3236 18.4255C16.5052 18.2835 16.5917 18.0512 16.5465 17.8254L14.2739 6.474C14.1421 5.8156 14.5699 5.17196 15.2295 5.03991C15.8891 4.90786 16.5318 5.33722 16.6636 5.99556L18.4578 14.9572C18.5238 15.287 18.845 15.5011 19.1748 15.4351C19.5046 15.369 19.7187 15.0478 19.6527 14.718L19.0546 11.7308C18.9228 11.0724 19.3507 10.4287 20.0103 10.2967C20.6699 10.1646 21.3126 10.594 21.4444 11.2523L22.0424 14.2395C22.1084 14.5693 22.4297 14.7834 22.7595 14.7174C23.0893 14.6514 23.3034 14.3301 23.2373 14.0003L22.8785 12.208C22.7467 11.5496 23.1746 10.9059 23.8342 10.7739C24.4937 10.6418 25.1364 11.0712 25.2682 11.7295L25.6271 13.5219C25.6931 13.8517 26.0144 14.0658 26.3442 13.9997C26.6739 13.9337 26.888 13.6124 26.822 13.2826L26.7024 12.6852C26.5706 12.0268 26.9985 11.3832 27.658 11.2511C28.3176 11.1191 28.9603 11.5484 29.0921 12.2068L30.4078 18.7786V18.7786Z" fill="#212121"/>
</svg>
