<svg width="24" height="24" viewBox="0 0 24 24" fill="none" xmlns="http://www.w3.org/2000/svg">
<path d="M23.9193 11.8305L20.0916 8.80969C20.0596 8.7845 20.0211 8.76884 19.9806 8.7645C19.9401 8.76017 19.8992 8.76733 19.8625 8.78518C19.8259 8.80303 19.7951 8.83083 19.7735 8.86541C19.7519 8.89998 19.7406 8.93993 19.7407 8.98068V10.9216H13.0812V4.26197H15.025C15.205 4.26197 15.307 4.05199 15.196 3.91099L12.1723 0.0832314C12.1522 0.0573293 12.1266 0.0363589 12.0972 0.0219306C12.0678 0.00750221 12.0355 0 12.0028 0C11.97 0 11.9377 0.00750221 11.9084 0.0219306C11.879 0.0363589 11.8533 0.0573293 11.8333 0.0832314L8.80953 3.91099C8.78434 3.94302 8.76868 3.9815 8.76434 4.02201C8.76001 4.06253 8.76717 4.10345 8.78502 4.14008C8.80286 4.17671 8.83067 4.20757 8.86524 4.22913C8.89982 4.25069 8.93977 4.26207 8.98052 4.26197H10.9214V10.9216H4.26189V8.97768C4.26189 8.79769 4.05191 8.6957 3.91092 8.80669L0.0832299 11.8305C0.0573283 11.8505 0.0363582 11.8762 0.0219302 11.9056C0.00750208 11.935 0 11.9673 0 12C0 12.0327 0.00750208 12.065 0.0219302 12.0944C0.0363582 12.1238 0.0573283 12.1495 0.0832299 12.1695L3.90792 15.1933C4.04891 15.3043 4.25889 15.2053 4.25889 15.0223V13.0814H10.9184V19.741H8.97452C8.79453 19.741 8.69254 19.951 8.80353 20.092L11.8273 23.9168C11.9143 24.0277 12.0823 24.0277 12.1663 23.9168L15.19 20.092C15.301 19.951 15.202 19.741 15.019 19.741H13.0812V13.0814H19.7407V15.0253C19.7407 15.2053 19.9506 15.3073 20.0916 15.1963L23.9163 12.1725C23.9421 12.1522 23.9631 12.1264 23.9776 12.0969C23.992 12.0674 23.9997 12.0351 24 12.0022C24.0003 11.9694 23.9932 11.9369 23.9792 11.9072C23.9652 11.8774 23.9448 11.8512 23.9193 11.8305V11.8305Z" fill="#212121"/>
</svg>
