<svg width="24" height="24" viewBox="0 0 24 24" fill="none" xmlns="http://www.w3.org/2000/svg">
<path d="M16.1437 11.8258L9.55446 7.05797C9.52244 7.03472 9.4846 7.02079 9.44515 7.01773C9.40569 7.01467 9.36616 7.02259 9.33093 7.04062C9.29571 7.05865 9.26616 7.08608 9.24557 7.11988C9.22498 7.15367 9.21415 7.19251 9.21428 7.23208V8.48833C9.21428 8.76154 9.34553 9.02136 9.56785 9.18208L13.4625 11.9999L9.56785 14.8178C9.34553 14.9785 9.21428 15.2356 9.21428 15.5115V16.7678C9.21428 16.9419 9.41249 17.0437 9.55446 16.9419L16.1437 12.174C16.2616 12.0883 16.2616 11.9115 16.1437 11.8258Z" fill="#212121"/>
<path d="M12 0C5.37321 0 0 5.37321 0 12C0 18.6268 5.37321 24 12 24C18.6268 24 24 18.6268 24 12C24 5.37321 18.6268 0 12 0ZM12 21.9643C6.49821 21.9643 2.03571 17.5018 2.03571 12C2.03571 6.49821 6.49821 2.03571 12 2.03571C17.5018 2.03571 21.9643 6.49821 21.9643 12C21.9643 17.5018 17.5018 21.9643 12 21.9643Z" fill="#212121"/>
</svg>
