<svg width="24" height="24" viewBox="0 0 24 24" fill="none" xmlns="http://www.w3.org/2000/svg">
<path d="M12 0C5.37321 0 0 5.37321 0 12C0 18.6268 5.37321 24 12 24C18.6268 24 24 18.6268 24 12C24 5.37321 18.6268 0 12 0ZM12 21.9643C6.49821 21.9643 2.03571 17.5018 2.03571 12C2.03571 6.49821 6.49821 2.03571 12 2.03571C17.5018 2.03571 21.9643 6.49821 21.9643 12C21.9643 17.5018 17.5018 21.9643 12 21.9643ZM9.64286 7.71429H8.35714C8.23929 7.71429 8.14286 7.81071 8.14286 7.92857V16.0714C8.14286 16.1893 8.23929 16.2857 8.35714 16.2857H9.64286C9.76071 16.2857 9.85714 16.1893 9.85714 16.0714V7.92857C9.85714 7.81071 9.76071 7.71429 9.64286 7.71429ZM15.6429 7.71429H14.3571C14.2393 7.71429 14.1429 7.81071 14.1429 7.92857V16.0714C14.1429 16.1893 14.2393 16.2857 14.3571 16.2857H15.6429C15.7607 16.2857 15.8571 16.1893 15.8571 16.0714V7.92857C15.8571 7.81071 15.7607 7.71429 15.6429 7.71429Z" fill="#212121"/>
</svg>
