<svg width="24" height="24" viewBox="0 0 24 24" fill="none" xmlns="http://www.w3.org/2000/svg">
<path d="M12 0C5.37321 0 0 5.37321 0 12C0 18.6268 5.37321 24 12 24C18.6268 24 24 18.6268 24 12C24 5.37321 18.6268 0 12 0ZM12 21.9643C6.49821 21.9643 2.03571 17.5018 2.03571 12C2.03571 6.49821 6.49821 2.03571 12 2.03571C17.5018 2.03571 21.9643 6.49821 21.9643 12C21.9643 17.5018 17.5018 21.9643 12 21.9643Z" fill="#212121"/>
<path d="M17.5554 11.6546L9.62412 5.89563C9.56051 5.84901 9.4852 5.82096 9.40659 5.81461C9.32797 5.80827 9.24914 5.82388 9.17888 5.85971C9.10861 5.89553 9.04968 5.95017 9.00864 6.01752C8.9676 6.08487 8.94607 6.1623 8.94645 6.24117V17.759C8.94645 18.1099 9.34287 18.3081 9.62412 18.1046L17.5554 12.3456C17.6101 12.3062 17.6547 12.2543 17.6855 12.1942C17.7162 12.1341 17.7323 12.0676 17.7323 12.0001C17.7323 11.9326 17.7162 11.8661 17.6855 11.806C17.6547 11.7459 17.6101 11.694 17.5554 11.6546V11.6546ZM10.6554 15.2438V8.75635L15.1206 12.0001L10.6554 15.2438V15.2438Z" fill="#212121"/>
</svg>
