<svg width="24" height="24" viewBox="0 0 24 24" fill="none" xmlns="http://www.w3.org/2000/svg">
<path d="M12 0C5.37321 0 0 5.37321 0 12C0 18.6268 5.37321 24 12 24C18.6268 24 24 18.6268 24 12C24 5.37321 18.6268 0 12 0ZM12 21.9643C6.49821 21.9643 2.03571 17.5018 2.03571 12C2.03571 6.49821 6.49821 2.03571 12 2.03571C17.5018 2.03571 21.9643 6.49821 21.9643 12C21.9643 17.5018 17.5018 21.9643 12 21.9643Z" fill="#212121"/>
<path d="M15.5564 8.72929V15.5564H8.72929V8.72929H15.5564ZM15.5714 6.985H8.71429C8.25565 6.985 7.8158 7.16719 7.4915 7.4915C7.16719 7.8158 6.985 8.25565 6.985 8.71429V15.5714C6.985 16.0301 7.16719 16.4699 7.4915 16.7942C7.8158 17.1185 8.25565 17.3007 8.71429 17.3007H15.5714C16.0301 17.3007 16.4699 17.1185 16.7942 16.7942C17.1185 16.4699 17.3007 16.0301 17.3007 15.5714V8.71429C17.3007 8.25565 17.1185 7.8158 16.7942 7.4915C16.4699 7.16719 16.0301 6.985 15.5714 6.985Z" fill="#212121" stroke="#212121" stroke-width="0.03"/>
</svg>
