<svg width="24" height="24" viewBox="0 0 24 24" fill="none" xmlns="http://www.w3.org/2000/svg">
<path d="M21.5256 13.2C21.2585 15.3149 20.2954 17.2808 18.7881 18.7881C17.2808 20.2954 15.3149 21.2585 13.2 21.5256V24H10.8V21.5256C8.68513 21.2585 6.7192 20.2954 5.21188 18.7881C3.70456 17.2808 2.7415 15.3149 2.4744 13.2H0V10.8H2.4744C2.7415 8.68513 3.70456 6.7192 5.21188 5.21188C6.7192 3.70456 8.68513 2.7415 10.8 2.4744V0H13.2V2.4744C15.3149 2.7415 17.2808 3.70456 18.7881 5.21188C20.2954 6.7192 21.2585 8.68513 21.5256 10.8H24V13.2H21.5256ZM12 19.2C13.9096 19.2 15.7409 18.4414 17.0912 17.0912C18.4414 15.7409 19.2 13.9096 19.2 12C19.2 10.0904 18.4414 8.25909 17.0912 6.90883C15.7409 5.55857 13.9096 4.8 12 4.8C10.0904 4.8 8.25909 5.55857 6.90883 6.90883C5.55857 8.25909 4.8 10.0904 4.8 12C4.8 13.9096 5.55857 15.7409 6.90883 17.0912C8.25909 18.4414 10.0904 19.2 12 19.2Z" fill="#212121"/>
<circle cx="12" cy="12" r="4" stroke="#212121" stroke-width="2"/>
</svg>
