<svg width="24" height="24" viewBox="0 0 24 24" fill="none" xmlns="http://www.w3.org/2000/svg">
<path d="M15.6485 9.98547H6.54094C6.4125 9.98547 6.30742 10.0906 6.30742 10.219V11.9704C6.30742 12.0989 6.4125 12.204 6.54094 12.204H15.6485C15.7769 12.204 15.882 12.0989 15.882 11.9704V10.219C15.882 10.0906 15.7769 9.98547 15.6485 9.98547ZM23.9387 22.3624L19.6768 18.1005C23.241 13.754 22.9929 7.3145 18.9179 3.24238C14.5976 -1.08079 7.58014 -1.08079 3.24238 3.24238C-1.08079 7.58014 -1.08079 14.5976 3.24238 18.9179C7.3145 22.9929 13.754 23.241 18.1005 19.6768L22.3624 23.9387C22.4558 24.0204 22.6047 24.0204 22.6835 23.9387L23.9387 22.6835C24.0204 22.6047 24.0204 22.4558 23.9387 22.3624ZM17.3708 17.3708C13.9029 20.8357 8.28656 20.8357 4.81868 17.3708C1.35373 13.9029 1.35373 8.28656 4.81868 4.81868C8.28656 1.35373 13.9029 1.35373 17.3708 4.81868C20.8357 8.28656 20.8357 13.9029 17.3708 17.3708Z" fill="#212121"/>
</svg>
